# Alias OBJ Model File
# Exported from SketchUp, (c) 2000-2012 Trimble Navigation Limited
# File units = meters

mtllib Brown_Cliff_Bottom_Green_Top_01.mtl

g Mesh1 Brown_Cliff_Bottom_Green_Top Model

usemtl Wood
v 0.5 0 -3
vt -0.227273 -2.60304e-029
vn 8.54817e-017 1.90889e-029 -1
v -0.64 -6.39876e-018 -3
vt 0.290909 -2.90853e-018
v -0.28 2.2 -3
vt 0.127273 1
v 0.5 2.2 -3
vt -0.227273 1
f 1/1/1 2/2/1 3/3/1 4/4/1 

v -0.277341 1.80478e-016 -1.27492
vt 0.126064 0.579508
vn -1.46071e-018 -1 -4.23319e-017
v -0.64 1.80478e-016 -1.92432
vt 0.290909 0.874689
v -0.493829 0 -2.38719
vt 0.224468 1.08509
vt 0.290909 1.36364
vt -0.227273 1.36364
v 0.5 0 2.88765e-015
vt -0.227273 -1.31257e-015
v -0.64 -6.39876e-018 -0
vt 0.290909 -1.41112e-034
v -0.52105 -5.41434e-016 -0.371864
vt 0.236841 0.169029
v -0.64 1.80478e-016 -0.701031
vt 0.290909 0.31865
f 5/5/2 6/6/2 7/7/2 2/8/2 1/9/2 8/10/2 9/11/2 10/12/2 11/13/2 

v 0.0826591 2.2 -1.27492
vt -0.487638 1.03455
vn -0.864304 0.141432 0.482675
v -0.28 2.2 -1.92432
vt -0.825729 1.03455
vt -0.905514 0.0243956
vt -0.567423 0.0243956
f 12/14/3 13/15/3 6/16/3 5/17/3 

usemtl Leafs
vt 0.0375723 0.579508
vn -4.8284e-017 1 3.10356e-017
v -0.28 2.2 -0.701031
vt -0.127273 0.31865
v -0.16105 2.2 -0.371864
vt -0.0732045 0.169029
v -0.28 2.2 -0
vt -0.127273 3.10356e-017
v 0.5 2.2 2.88765e-015
vt 0.227273 -1.28153e-015
vt 0.227273 1.36364
vt -0.127273 1.36364
v -0.133829 2.2 -2.38719
vt -0.0608315 1.08509
vt -0.127273 0.874689
f 12/18/4 14/19/4 15/20/4 16/21/4 17/22/4 4/23/4 3/24/4 18/25/4 13/26/4 

usemtl Wood
vt -0.201382 0.9525
vn -0.837379 0.137026 -0.529169
vt -0.509961 0.9525
vt -0.422545 -0.0570228
vt -0.113966 -0.0570228
f 14/27/5 12/28/5 5/29/5 11/30/5 

vt -0.183847 0.98663
vn -0.929534 0.152106 0.335903
vt -0.342938 0.98663
vt -0.398551 -0.0251427
vt -0.23946 -0.0251427
f 15/31/6 14/32/6 11/33/6 10/34/6 

vt 0.0387759 0.969403
vn -0.941097 0.153998 -0.301034
vt -0.13869 0.969403
vt -0.0888354 -0.0426695
vt 0.0886307 -0.0426695
f 16/35/7 15/36/7 10/37/7 9/38/7 

vt -0.290909 -2.90853e-018
vn -8.54817e-017 -1.55098e-029 1
vt 0.227273 2.00563e-044
vt 0.227273 1
vt -0.127273 1
f 9/39/8 8/40/8 17/41/8 16/42/8 

vt 1.36364 1
vn 1 1.27155e-016 -1.08287e-016
vt -1.33718e-015 1
vt -1.33718e-015 -2.88988e-017
vt 1.36364 -2.88988e-017
f 4/43/9 17/44/9 8/45/9 1/46/9 

vt -1.06959 1.01784
vn -0.960619 0.157192 0.229132
vt -1.35595 1.01784
vt -1.39392 0.00525272
vt -1.10756 0.00525272
f 18/47/10 3/48/10 2/49/10 7/50/10 

vt -0.795763 0.928723
vn -0.942182 0.154175 -0.297529
vt -1.0164 0.928723
vt -0.967127 -0.0833781
vt -0.746487 -0.0833781
f 13/51/11 18/52/11 7/53/11 6/54/11 

