# Alias OBJ Model File
# Exported from SketchUp, (c) 2000-2012 Trimble Navigation Limited
# File units = meters

mtllib Brown_Cliff_Green_Top_01.mtl

g Mesh1 Brown_Cliff_Green_Top Model

usemtl Wood
v 0.5 0 -3
vt -0.227273 0
vn 0 0 -1
v -0.28 -6.39876e-018 -3
vt 0.127273 -2.90853e-018
v -0.28 2.2 -3
vt 0.127273 1
v 0.5 2.2 -3
vt -0.227273 1
f 1/1/1 2/2/1 3/3/1 4/4/1 

v 0.0826591 1.80478e-016 -1.27492
vt -0.0375723 0.579508
vn -9.9017e-019 -1 -4.23189e-017
v -0.28 1.80478e-016 -1.92432
vt 0.127273 0.874689
v -0.133829 0 -2.38719
vt 0.0608315 1.08509
vt 0.127273 1.36364
vt -0.227273 1.36364
v 0.5 0 1.08287e-015
vt -0.227273 -4.92212e-016
v -0.28 -6.39876e-018 1.08287e-015
vt 0.127273 -4.92212e-016
v -0.16105 -5.41434e-016 -0.371864
vt 0.0732045 0.169029
v -0.28 1.80478e-016 -0.701031
vt 0.127273 0.31865
f 5/5/2 6/6/2 7/7/2 2/8/2 1/9/2 8/10/2 9/11/2 10/12/2 11/13/2 

v 0.0826591 2.2 -1.27492
vt -0.487638 1
vn -0.87308 -2.07549e-032 0.487576
v -0.28 2.2 -1.92432
vt -0.825729 1
vt -0.825729 8.20354e-017
vt -0.487638 8.20354e-017
f 12/14/3 13/15/3 6/16/3 5/17/3 

usemtl Leafs
vt 0.0375723 0.579508
vn -4.8284e-017 1 3.10356e-017
v -0.28 2.2 -0.701031
vt -0.127273 0.31865
v -0.16105 2.2 -0.371864
vt -0.0732045 0.169029
v -0.28 2.2 1.08287e-015
vt -0.127273 -4.61177e-016
v 0.5 2.2 1.08287e-015
vt 0.227273 -4.61177e-016
vt 0.227273 1.36364
vt -0.127273 1.36364
v -0.133829 2.2 -2.38719
vt -0.0608315 1.08509
vt -0.127273 0.874689
f 12/18/4 14/19/4 15/20/4 16/21/4 17/22/4 4/23/4 3/24/4 18/25/4 13/26/4 

usemtl Wood
vt -0.201382 1
vn -0.845353 2.87609e-032 -0.534208
vt -0.509961 1
vt -0.509961 8.20354e-017
vt -0.201382 8.20354e-017
f 14/27/5 12/28/5 5/29/5 11/30/5 

vt -0.183847 1
vn -0.940477 -1.37651e-018 0.339857
vt -0.342938 1
vt -0.342938 8.20511e-017
vt -0.183847 -2.4609e-016
f 15/31/6 14/32/6 11/33/6 10/34/6 

vt 0.0387759 1
vn -0.952459 -3.39553e-018 -0.304668
vt -0.13869 1
vt -0.13869 -2.45695e-016
vt 0.0387759 -2.49691e-018
f 16/35/7 15/36/7 10/37/7 9/38/7 

vt -0.127273 -2.90853e-018
vn 0 0 1
vt 0.227273 0
vt 0.227273 1
vt -0.127273 1
f 9/39/8 8/40/8 17/41/8 16/42/8 

vt 1.36364 1
vn 1 1.27155e-016 -1.08287e-016
vt -5.16823e-016 1
vt -5.16823e-016 -2.88988e-017
vt 1.36364 -2.88988e-017
f 4/43/9 17/44/9 8/45/9 1/46/9 

vt -1.06959 1
vn -0.972712 0 0.232017
vt -1.35595 1
vt -1.35595 -2.90853e-018
vt -1.06959 0
f 18/47/10 3/48/10 2/49/10 7/50/10 

vt -0.795763 1
vn -0.953583 4.75341e-019 -0.30113
vt -1.0164 1
vt -1.0164 -1.82892e-019
vt -0.795763 8.18525e-017
f 13/51/11 18/52/11 7/53/11 6/54/11 

