# Alias OBJ Model File
# Exported from SketchUp, (c) 2000-2012 Trimble Navigation Limited
# File units = meters

mtllib Flower_Tall_Yellow_01.mtl

g Mesh1 Flower_Tall_Yellow Model

usemtl Green_leafs
v 0.26837 0.36 -0.26837
vt 0.121986 0.163636
vn 1 0 -0
v 0.26837 0.36 -0.217556
vt 0.0988891 0.163636
v 0.26837 0 -0.217556
vt 0.0988891 0
v 0.26837 0 -0.242963
vt 0.110438 0
v 0.26837 0 -0.26837
vt 0.121986 0
f 1/1/1 2/2/1 3/3/1 4/4/1 5/5/1 

vn -1 -0 0
f 5/5/2 4/4/2 3/3/2 2/2/2 1/1/2 

vt -0.121986 0.0988891
vn 0 -1 -0
v 0.242963 0 -0.217556
vt -0.110438 0.0988891
v 0.217556 0 -0.217556
vt -0.0988891 0.0988891
v 0.217556 0 -0.242963
vt -0.0988891 0.110438
v 0.217556 0 -0.26837
vt -0.0988891 0.121986
v 0.242963 0 -0.26837
vt -0.110438 0.121986
vt -0.121986 0.121986
vt -0.121986 0.110438
f 3/6/3 6/7/3 7/8/3 8/9/3 9/10/3 10/11/3 5/12/3 4/13/3 

vn -0 1 0
f 4/13/4 5/12/4 10/11/4 9/10/4 8/9/4 7/8/4 6/7/4 3/6/4 

v 0.217556 0.36 -0.26837
vt -0.0988891 0.163636
vn 0 0 -1
vt -0.121986 0.163636
vt -0.121986 0
vt -0.110438 0
vt -0.0988891 0
f 11/14/5 1/15/5 5/16/5 10/17/5 9/18/5 

usemtl Light_Wood
v 0.321713 0.36 -0.321713
vt -0.146233 0.146233
f 11/10/3 12/19/3 1/12/3

v 0.164213 0.36 -0.321713
vt -0.0746422 0.146233
f 11/10/3 13/20/3 12/19/3

v 0.164213 0.36 -0.164213
vt -0.0746422 0.0746422
f 13/20/3 11/10/3 14/21/3

usemtl Green_leafs
f 14/21/4 11/10/4 13/20/4

usemtl Light_Wood
v 0.217556 0.36 -0.217556
f 15/8/3 14/21/3 11/10/3

v 0.321713 0.36 -0.164213
vt -0.146233 0.0746422
f 14/21/3 15/8/3 16/22/3

usemtl Green_leafs
f 16/22/4 15/8/4 14/21/4

usemtl Light_Wood
f 16/22/3 15/8/3 2/6/3

usemtl Green_leafs
f 2/6/4 15/8/4 16/22/4

vn 0 0 1
f 2/1/6 15/2/6 7/3/6 6/4/6 3/5/6 

vn -0 -0 -1
f 3/5/7 6/4/7 7/3/7 15/2/7 2/1/7 

vn -1 0 -0
f 15/14/8 11/15/8 9/16/8 8/17/8 7/18/8 

f 11/10/4 14/21/4 15/8/4

vn 1 -0 0
f 7/18/9 8/17/9 9/16/9 11/15/9 15/14/9 

vn -0 -0 1
f 9/18/10 10/17/10 5/16/10 1/15/10 11/14/10 

f 1/12/4 12/19/4 11/10/4

usemtl Light_Wood
f 1/12/3 12/19/3 2/6/3

usemtl Green_leafs
f 2/6/4 12/19/4 1/12/4

usemtl Light_Wood
f 16/22/3 2/6/3 12/19/3

usemtl Green_leafs
f 12/19/4 2/6/4 16/22/4

usemtl Light_Wood
vt 0.0746422 0.186884
vn 0.98429 -0.176557 2.35407e-019
vt 0.146233 0.186884
v 0.354 0.54 -0.354
vt 0.160909 0.270008
v 0.354 0.54 -0.131925
vt 0.0599661 0.270008
f 16/23/11 12/24/11 17/25/11 18/26/11 

usemtl Green_leafs
vn -0.98429 0.176557 -2.35407e-019
f 18/26/12 17/25/12 12/24/12 16/23/12 

usemtl Light_Wood
vt 0.160909 0.0599661
vn 0 1 -0
vt 0.160909 0.160909
v 0.131925 0.54 -0.354
vt 0.0599661 0.160909
v 0.131925 0.54 -0.131925
vt 0.0599661 0.0599661
f 18/27/13 17/28/13 19/29/13 20/30/13 

usemtl Green_leafs
vn -0 -1 0
f 20/30/14 19/29/14 17/28/14 18/27/14 

usemtl Light_Wood
vt -0.0599661 0.231011
vn -0.98429 -0.176557 -4.04472e-018
vt -0.160909 0.231011
vt -0.146233 0.147887
vt -0.0746422 0.147887
f 20/31/15 19/32/15 13/33/15 14/34/15 

usemtl Green_leafs
vn 0.98429 0.176557 4.04472e-018
f 14/34/16 13/33/16 19/32/16 20/31/16 

usemtl Light_Wood
vt -0.0746422 0.186884
vn 4.79375e-018 -0.176557 -0.98429
vt -0.0599661 0.270008
vt -0.160909 0.270008
vt -0.146233 0.186884
f 13/35/17 19/36/17 17/37/17 12/38/17 

usemtl Green_leafs
vn -4.79375e-018 0.176557 0.98429
f 12/38/18 17/37/18 19/36/18 13/35/18 

f 12/19/4 13/20/4 11/10/4

usemtl Light_Wood
vt 0.146233 0.147887
vn 9.07388e-018 -0.176557 0.98429
vt 0.160909 0.231011
vt 0.0599661 0.231011
vt 0.0746422 0.147887
f 16/39/19 18/40/19 20/41/19 14/42/19 

usemtl Green_leafs
vn -9.07388e-018 0.176557 -0.98429
f 14/42/20 20/41/20 18/40/20 16/39/20 

g Mesh2 Flower_Tall_Yellow Model

v 0.447925 0 -0.242963
vt -0.203602 0
v 0.26837 0.107776 -0.242963
vt -0.121986 0.0489891
v 0.485926 0.210877 -0.242963
vt -0.220875 0.095853
f 21/43/5 4/16/5 22/44/5 23/45/5 

f 23/45/10 22/44/10 4/16/10 21/43/10 

g Mesh3 Flower_Tall_Yellow Model

v 0.242963 0.210877 -0.485926
vt 0.220875 0.095853
vn 1 2.01317e-016 1.49012e-008
v 0.242963 0.107776 -0.26837
vt 0.121986 0.0489891
vt 0.121986 -2.2233e-017
v 0.242963 0 -0.447925
vt 0.203602 -2.2233e-017
f 24/46/21 25/47/21 10/48/21 26/49/21 

vn -1 -2.01317e-016 -1.49012e-008
f 26/49/22 10/48/22 25/47/22 24/46/22 

g Mesh4 Flower_Tall_Yellow Model

v 0.242963 0 -0.0380007
vt 0.0172731 2.19562e-017
vn 1 -1.98811e-016 1.49012e-008
vt 0.0988891 2.19562e-017
v 0.242963 0.107776 -0.217556
vt 0.0988891 0.0489891
v 0.242963 0.210877 -0
vt 1.64565e-009 0.095853
f 27/50/23 6/51/23 28/52/23 29/53/23 

vn -1 1.98811e-016 -1.49012e-008
f 29/53/24 28/52/24 6/51/24 27/50/24 

g Mesh5 Flower_Tall_Yellow Model

v 0 0.210877 -0.242963
vt 0 0.095853
v 0.217556 0.107776 -0.242963
vt -0.0988891 0.0489891
v 0.0380007 0 -0.242963
vt -0.0172731 0
f 30/54/5 31/55/5 8/18/5 32/56/5 

f 32/56/10 8/18/10 31/55/10 30/54/10 

