# Alias OBJ Model File
# Exported from SketchUp, (c) 2000-2012 Trimble Navigation Limited
# File units = meters

mtllib Grey_Cliff_Top_Corner_01.mtl

g Mesh1 Grey_Cliff_Top_Corner Model

usemtl Leafs
v 0.92 0.29 -0
vt 0.418182 0
vn 0 1 -0
v 0.92 0.29 -0.710938
vt 0.418182 0.323153
v 0.204709 0.29 8.66294e-015
vt 0.0930498 -3.9377e-015
f 1/1/1 2/2/1 3/3/1

usemtl Stone
v 0.92 0 -0
vt -2.44368e-014 -6.07255e-014
vn 1 1.45213e-013 -5.84357e-014
v 0.92 0 -0.78
vt 0.354545 -6.07255e-014
v 0.92 0.29 -0.92
vt 0.418182 0.131818
vt 0.323153 0.131818
vt -2.44368e-014 0.131818
f 4/4/2 5/5/2 6/6/2 2/7/2 1/8/2 

vt -0.418182 0
vn 0 -1 -0
v 0.14 0 -0
vt -0.0636364 0
vt -0.418182 0.354545
f 4/9/3 7/10/3 5/11/3

vt 0.0636364 1.2584e-025
vn -8.92058e-013 2.21677e-012 1
vt 0.418182 8.26949e-025
vt 0.0930498 0.131818
v 0 0.29 -1.41061e-012
vt -5.71977e-025 0.131818
f 7/12/4 4/13/4 1/6/4 3/14/4 8/15/4 

vt 0 6.41189e-013
vt 0.418182 0.418182
f 8/16/1 3/3/1 2/2/1 6/17/1 

vt -0.591398 0.12475
vn -0.669191 -0.323058 -0.669191
vt -0.546401 -0.0145369
vt -0.0449977 -0.0145369
vt -4.53391e-013 0.12475
f 6/18/5 5/19/5 7/20/5 8/21/5 

