# Alias OBJ Model File
# Exported from SketchUp, (c) 2000-2012 Trimble Navigation Limited
# File units = meters

mtllib Hanging_Moss_01.mtl

g Mesh1 Hanging_Moss Model

usemtl Green_leafs
v 0 1.43 -0.63
vt -0.286364 0.65
vn -1 0 -0
v 0 0.958367 -0.63
vt -0.286364 0.435621
v 0 0.910641 -0.509078
vt -0.231399 0.413928
v 0 0.550641 -0.509078
vt -0.231399 0.250291
v 0 0.502914 -0.388156
vt -0.176434 0.228597
v 0 0.0629143 -0.388156
vt -0.176434 0.0285974
v 0 0.0629143 -0.298156
vt -0.135525 0.0285974
v 0 0.221043 -0.235744
vt -0.107156 0.100474
v 0 1.01104 -0.235744
vt -0.107156 0.459565
v 0 1.16917 -0.173333
vt -0.0787875 0.531442
v 0 1.43 -0.173333
vt -0.0787875 0.65
f 1/1/1 2/2/1 3/3/1 4/4/1 5/5/1 6/6/1 7/7/1 8/8/1 9/9/1 10/10/1 11/11/1 

vn 1 -0 0
f 11/11/2 10/10/2 9/9/2 8/8/2 7/7/2 6/6/2 5/5/2 4/4/2 3/3/2 2/2/2 1/1/2 

