# Alias OBJ Model File
# Exported from SketchUp, (c) 2000-2012 Trimble Navigation Limited
# File units = meters

mtllib Mushroom_Tall_01.mtl

g Mesh1 Mushroom_Tall Model

usemtl Wood
v 0.434918 0.5359 -0.12555
vt 0.199739 0.151783
vn 0.377964 0.654654 0.654654
v 0.217459 0.787 -0.2511
vt 0.14267 0.302771
v 0.217459 0.5359 -0
vt 0.0856023 0.151783
f 1/1/1 2/2/1 3/3/1

vt 0.114136 0.205707
vn 0.755929 0.654654 2.60503e-017
vt 0.0570682 0.0547189
v 0.434918 0.5359 -0.37665
vt 0.171205 0.0547189
f 2/4/2 1/5/2 4/6/2

vt -0.19769 0.0570682
vn 0 -1 -0
v 0.256805 0.5359 -0.211754
vt -0.116729 0.0962519
vt -0.19769 0.171205
f 1/7/3 5/8/3 4/9/3

vt -0.098845 0
f 3/10/3 5/8/3 1/7/3

v 0.178113 0.5359 -0.211754
vt -0.0809606 0.0962519
f 3/10/3 6/11/3 5/8/3

v 0 0.5359 -0.12555
vt 0 0.0570682
f 7/12/3 6/11/3 3/10/3

v 0.178113 0.5359 -0.290446
vt -0.0809606 0.132021
f 6/11/3 7/12/3 8/13/3

v 0.217459 0.5359 -0.5022
vt -0.098845 0.228273
f 7/12/3 9/14/3 8/13/3

v 0 0.5359 -0.37665
vt 0 0.171205
f 9/14/3 7/12/3 10/15/3

vt -0.0570682 0.184137
vn -0.755929 0.654654 3.6406e-017
vt -0.114136 0.335126
vt -0.171205 0.184137
f 7/16/4 2/17/4 10/18/4

vt 0.0856023 0.216492
vn -0.377964 0.654654 0.654654
vt 0.0285341 0.36748
vt -0.0285341 0.216492
f 3/19/5 2/20/5 7/21/5

vt -0.0856023 0.0870736
vn -0.377964 0.654654 -0.654654
vt -0.14267 0.238062
vt -0.199739 0.0870736
f 10/22/6 2/23/6 9/24/6

vt 0.0285341 0.0223643
vn 0.377964 0.654654 -0.654654
vt -0.0285341 0.173353
vt -0.0856023 0.0223643
f 9/25/7 2/26/7 4/27/7

v 0.256805 0.5359 -0.290446
vt -0.116729 0.132021
f 11/28/3 9/14/3 4/9/3

f 8/13/3 9/14/3 11/28/3

usemtl FrontColor
v 0.158734 0 -0.309825
vt -6.24937 -0.440811
vn -2.31359e-019 0.0361384 -0.999347
vt -7.01233 20.6714
vt -10.1104 20.6714
v 0.276184 0 -0.309825
vt -10.8734 -0.440811
f 12/29/8 8/30/8 11/31/8 13/32/8 

vt -8.33678 21.3381
vn -0.999347 0.0361384 -1.41707e-018
vt -11.4349 21.3381
vt -12.1978 0.225842
v 0.158734 0 -0.192375
vt -7.57382 0.225842
f 6/33/9 8/34/9 12/35/9 14/36/9 

usemtl Wood
f 11/28/3 5/8/3 6/11/3 8/13/3 

f 11/28/3 4/9/3 5/8/3

usemtl FrontColor
v 0.276184 0 -0.192375
vt 7.57382 -0.392947
vn 0.999347 0.0361384 -1.41707e-018
vt 12.1978 -0.392947
vt 11.4349 20.7193
vt 8.33678 20.7193
f 15/37/10 13/38/10 11/39/10 5/40/10 

vt -10.8734 12.1978
vt -10.8734 7.57382
vt -6.24937 7.57382
vt -6.24937 12.1978
f 13/41/3 15/42/3 14/43/3 12/44/3 

vt 10.8734 0.273706
vn -2.31359e-019 0.0361384 0.999347
vt 10.1104 21.3859
vt 7.01233 21.3859
vt 6.24937 0.273706
f 15/45/11 5/46/11 6/47/11 14/48/11 

