# Alias OBJ Model File
# Exported from SketchUp, (c) 2000-2012 Trimble Navigation Limited
# File units = meters

mtllib Mushroom_Brown_01.mtl

g Mesh1 Mushroom_Brown Model

usemtl Wood
v 0 0.205335 -0.12555
vt -0.0570682 0.0525498
vn -0.563029 0.826437 2.71158e-017
v 0.217459 0.353484 -0.2511
vt -0.114136 0.172154
v 0 0.205335 -0.37665
vt -0.171205 0.0525498
f 1/1/1 2/2/1 3/3/1

v 0.217459 0.205335 -0
vt 0.0856023 0.0933944
vn -0.281515 0.826437 0.487598
vt 0.0285341 0.212998
vt -0.0285341 0.0933944
f 4/4/2 2/5/2 1/6/2

v 0.434918 0.205335 -0.12555
vt 0.199739 0.0117053
vn 0.281515 0.826437 0.487598
vt 0.14267 0.131309
vt 0.0856023 0.0117053
f 5/7/3 2/8/3 4/9/3

vt 0.114136 0.00877535
vn 0.563029 0.826437 1.94027e-017
vt 0.0570682 -0.110828
v 0.434918 0.205335 -0.37665
vt 0.171205 -0.110828
f 2/10/4 5/11/4 6/12/4

vt -0.19769 0.0570682
vn 0 -1 -0
v 0.298431 0.205335 -0.15983
vt -0.135651 0.07265
vt -0.19769 0.171205
f 5/13/5 7/14/5 6/15/5

vt -0.098845 0
f 4/16/5 7/14/5 5/13/5

v 0.141048 0.205335 -0.15983
vt -0.0641128 0.07265
f 4/16/5 8/17/5 7/14/5

vt 0 0.0570682
f 1/18/5 8/17/5 4/16/5

v 0.141048 0.205335 -0.317213
vt -0.0641128 0.144188
f 8/17/5 1/18/5 9/19/5

v 0.217459 0.205335 -0.5022
vt -0.098845 0.228273
f 1/18/5 10/20/5 9/19/5

vt 0 0.171205
f 10/20/5 1/18/5 3/21/5

vt -0.0856023 -0.0699839
vn -0.281515 0.826437 -0.487598
vt -0.14267 0.0496199
vt -0.199739 -0.0699839
f 3/22/6 2/23/6 10/24/6

vt 0.0285341 -0.151673
vn 0.281515 0.826437 -0.487598
vt -0.0285341 -0.0320692
vt -0.0856023 -0.151673
f 10/25/7 2/26/7 6/27/7

v 0.298431 0.205335 -0.317213
vt -0.135651 0.144188
f 11/28/5 10/20/5 6/15/5

f 9/19/5 10/20/5 11/28/5

usemtl FrontColor
v 0.10229 0 -0.355972
vt -4.02715 -2.59946
vn -2.27493e-019 0.185482 -0.982648
vt -5.55308 5.62735
vt -11.7493 5.62735
v 0.33719 0 -0.355972
vt -13.2752 -2.59946
f 12/29/8 9/30/8 11/31/8 13/32/8 

vt -6.29252 8.97377
vn -0.982648 0.185482 -1.39339e-018
vt -12.4887 8.97377
vt -14.0146 0.746965
v 0.10229 0 -0.121072
vt -4.7666 0.746965
f 8/33/9 9/34/9 12/35/9 14/36/9 

usemtl Wood
f 11/28/5 7/14/5 8/17/5 9/19/5 

f 11/28/5 6/15/5 7/14/5

usemtl FrontColor
v 0.33719 0 -0.121072
vt 4.7666 -2.46231
vn 0.982648 0.185482 -1.39339e-018
vt 14.0146 -2.46231
vt 12.4887 5.7645
vt 6.29252 5.7645
f 15/37/10 13/38/10 11/39/10 7/40/10 

vt -13.2752 14.0146
vt -13.2752 4.7666
vt -4.02715 4.7666
vt -4.02715 14.0146
f 13/41/5 15/42/5 14/43/5 12/44/5 

vt 13.2752 0.884118
vn -2.27493e-019 0.185482 0.982648
vt 11.7493 9.11093
vt 5.55308 9.11093
vt 4.02715 0.884118
f 15/45/11 7/46/11 8/47/11 14/48/11 

