# Alias OBJ Model File
# Exported from SketchUp, (c) 2000-2012 Trimble Navigation Limited
# File units = meters

mtllib Mushroom_Red_01.mtl

g Mesh1 Mushroom_Red Model

usemtl FrontColor
v 0.33719 0 -0.121072
vt 13.2752 0.580472
vn -2.29787e-019 0.121779 0.992557
v 0.298431 0.3159 -0.15983
vt 11.7493 13.1107
v 0.141048 0.3159 -0.15983
vt 5.55308 13.1107
v 0.10229 0 -0.121072
vt 4.02715 0.580472
f 1/1/1 2/2/1 3/3/1 4/4/1 

vt 4.7666 -1.61664
vn 0.992557 0.121779 -1.40745e-018
v 0.33719 0 -0.355972
vt 14.0146 -1.61664
v 0.298431 0.3159 -0.317213
vt 12.4887 10.9136
vt 6.29252 10.9136
f 1/5/2 5/6/2 6/7/2 2/8/2 

vt -13.2752 14.0146
vn 0 -1 -0
vt -13.2752 4.7666
vt -4.02715 4.7666
v 0.10229 0 -0.355972
vt -4.02715 14.0146
f 5/9/3 1/10/3 4/11/3 7/12/3 

vt -6.29252 13.0207
vn -0.992557 0.121779 -1.40745e-018
v 0.141048 0.3159 -0.317213
vt -12.4887 13.0207
vt -14.0146 0.490423
vt -4.7666 0.490423
f 3/13/4 8/14/4 7/15/4 4/16/4 

usemtl Mushroom_Red
vt -0.135651 0.144188
vt -0.135651 0.07265
vt -0.0641128 0.07265
vt -0.0641128 0.144188
f 6/17/3 2/18/3 3/19/3 8/20/3 

v 0.434918 0.3159 -0.37665
vt -0.19769 0.171205
f 6/17/3 9/21/3 2/18/3

v 0.217459 0.3159 -0.5022
vt -0.098845 0.228273
f 6/17/3 10/22/3 9/21/3

f 8/20/3 10/22/3 6/17/3

v 0 0.3159 -0.12555
vt 0 0.0570682
f 11/23/3 10/22/3 8/20/3

v 0 0.3159 -0.37665
vt 0 0.171205
f 10/22/3 11/23/3 12/24/3

vt -0.0570682 0.108545
vn -0.755929 0.654654 3.6406e-017
v 0.217459 0.567 -0.2511
vt -0.114136 0.259533
vt -0.171205 0.108545
f 11/25/5 13/26/5 12/27/5

v 0.217459 0.3159 -0
vt 0.0856023 0.140899
vn -0.377964 0.654654 0.654654
vt 0.0285341 0.291887
vt -0.0285341 0.140899
f 14/28/6 13/29/6 11/30/6

v 0.434918 0.3159 -0.12555
vt 0.199739 0.0761899
vn 0.377964 0.654654 0.654654
vt 0.14267 0.227178
vt 0.0856023 0.0761899
f 15/31/7 13/32/7 14/33/7

vt 0.114136 0.130114
vn 0.755929 0.654654 2.60503e-017
vt 0.0570682 -0.0208739
vt 0.171205 -0.0208739
f 13/34/8 15/35/8 9/36/8

vt -0.19769 0.0570682
f 15/37/3 2/18/3 9/21/3

vt -0.098845 0
f 14/38/3 2/18/3 15/37/3

f 14/38/3 3/19/3 2/18/3

f 11/23/3 3/19/3 14/38/3

f 3/19/3 11/23/3 8/20/3

vt 0.0285341 -0.0532286
vn 0.377964 0.654654 -0.654654
vt -0.0285341 0.0977597
vt -0.0856023 -0.0532286
f 10/39/9 13/40/9 9/41/9

vt -0.0856023 0.0114807
vn -0.377964 0.654654 -0.654654
vt -0.14267 0.162469
vt -0.199739 0.0114807
f 12/42/10 13/43/10 10/44/10

usemtl FrontColor
vt -4.02715 -1.70669
vn -2.29787e-019 0.121779 -0.992557
vt -5.55308 10.8236
vt -11.7493 10.8236
vt -13.2752 -1.70669
f 7/45/11 8/46/11 6/47/11 5/48/11 

