# Alias OBJ Model File
# Exported from SketchUp, (c) 2000-2012 Trimble Navigation Limited
# File units = meters

mtllib Plant_3_01.mtl

g Mesh1 Plant_3 Model

usemtl Green_leafs
v 0.662239 0.0986 -0.336363
vt -0.152892 0.112301
vn -0.973636 0.228106 1.67643e-013
v 0.769823 0.557804 -0.336363
vt -0.152892 0.326682
v 0.769823 0.557804 -0.696363
vt -0.316528 0.326682
v 0.662239 0.0986 -0.696363
vt -0.316528 0.112301
f 1/1/1 2/2/1 3/3/1 4/4/1 

vn 0.973636 -0.228106 -1.67643e-013
f 4/4/2 3/3/2 2/2/2 1/1/2 

v 0.966493 0.696081 -0.626163
vt -0.284619 0.541359
vn -0.575155 0.818044 2.09236e-013
vt -0.316528 0.432079
vt -0.152892 0.432079
v 0.966493 0.696081 -0.406563
vt -0.184801 0.541359
f 5/5/3 3/6/3 2/7/3 6/8/3 

vn 0.575155 -0.818044 -2.09236e-013
f 6/8/4 2/7/4 3/6/4 5/5/4 

vt 0.184801 -0.136011
vn 0.638608 0.769532 -2.31956e-013
v 1.14972 0.544027 -0.516363
vt 0.23471 -0.24424
vt 0.284619 -0.136011
f 6/9/5 7/10/5 5/11/5

vn -0.638608 -0.769532 2.31956e-013
f 5/11/6 7/10/6 6/9/6

vt 0.152892 0.236037
vn 0.738583 -0.674163 1.16411e-014
v 0.572239 1.12799e-017 -0.426363
vt 0.193801 0.175355
v 0.572239 1.12799e-017 -0.606363
vt 0.275619 0.175355
vt 0.316528 0.236037
f 1/12/7 8/13/7 9/14/7 4/15/7 

vn -0.738583 0.674163 -1.16411e-014
f 4/15/8 9/14/8 8/13/8 1/12/8 

vt -0.301018 0.246494
vn -1.42285e-014 -0.674163 -0.738583
vt -0.260109 0.185812
v 0.392239 0 -0.606363
vt -0.17829 0.185812
v 0.302239 0.0986 -0.696363
vt -0.137381 0.246494
f 4/16/9 9/17/9 10/18/9 11/19/9 

vn 1.42285e-014 0.674163 0.738583
f 11/19/10 10/18/10 9/17/10 4/16/10 

vt -0.316528 -0.0595154
vn -0.738583 -0.674163 1.8575e-012
vt -0.275619 -0.120197
v 0.392239 1.12799e-017 -0.426363
vt -0.193801 -0.120197
v 0.302239 0.0986 -0.336363
vt -0.152892 -0.0595154
f 11/20/11 10/21/11 12/22/11 13/23/11 

vn 0.738583 0.674163 -1.8575e-012
f 13/23/12 12/22/12 10/21/12 11/20/12 

vt 0.137381 -0.0699722
vn 7.06167e-013 -0.674163 0.738583
vt 0.17829 -0.130654
vt 0.260109 -0.130654
vt 0.301018 -0.0699722
f 13/24/13 12/25/13 8/26/13 1/27/13 

vn -7.06167e-013 0.674163 -0.738583
f 1/27/14 8/26/14 12/25/14 13/24/14 

vt -0.260109 0.275619
vn 3.1333e-017 -1 3.1333e-017
vt -0.260109 0.193801
vt -0.17829 0.193801
vt -0.17829 0.275619
f 9/28/15 8/29/15 12/30/15 10/31/15 

vn -3.1333e-017 1 -3.1333e-017
f 10/31/16 12/30/16 8/29/16 9/28/16 

vt -0.137381 -0.00953143
vn -1.12852e-012 0.338203 -0.941073
v 0.302239 0.362757 -0.24143
vt -0.137381 0.118058
v 0.662239 0.362757 -0.24143
vt -0.301018 0.118058
vt -0.301018 -0.00953143
f 13/32/17 14/33/17 15/34/17 1/35/17 

vn 1.12852e-012 -0.338203 0.941073
f 1/35/18 15/34/18 14/33/18 13/32/18 

v 0.592039 0.48832 -0.126427
vt -0.269109 0.12487
vn -8.85096e-013 0.675416 -0.737437
vt -0.301018 0.047475
vt -0.137381 0.047475
v 0.372439 0.48832 -0.126427
vt -0.16929 0.12487
f 16/36/19 15/37/19 14/38/19 17/39/19 

vn 8.85096e-013 -0.675416 0.737437
f 17/39/20 14/38/20 15/37/20 16/36/20 

vt 0.16929 0.200673
vn 8.71524e-013 0.687641 0.726051
v 0.482239 0.354831 -0
vt 0.219199 0.117103
vt 0.269109 0.200673
f 17/40/21 18/41/21 16/42/21

vn -8.71524e-013 -0.687641 -0.726051
f 16/42/22 18/41/22 17/40/22

vt 0.316528 0.0232575
vn 0.988212 0.153095 -3.1064e-012
v 0.246937 0.455569 -0.696363
vt 0.316528 0.187452
v 0.246937 0.455569 -0.336363
vt 0.152892 0.187452
vt 0.152892 0.0232575
f 11/43/23 19/44/23 20/45/23 13/46/23 

vn -0.988212 -0.153095 3.1064e-012
f 13/46/24 20/45/24 19/44/24 11/43/24 

v 0.113601 0.565249 -0.406563
vt 0.184801 0.123343
vn 0.635272 0.772288 -1.99676e-012
vt 0.152892 0.0448654
vt 0.316528 0.0448654
v 0.113601 0.565249 -0.626163
vt 0.284619 0.123343
f 21/47/25 20/48/25 19/49/25 22/50/25 

vn -0.635272 -0.772288 1.99676e-012
f 22/50/26 19/49/26 20/48/26 21/47/26 

vt -0.284619 0.222309
vn -0.727317 0.686301 2.28576e-012
v 0 0.444859 -0.516363
vt -0.23471 0.14707
vt -0.184801 0.222309
f 22/51/27 23/52/27 21/53/27

vn 0.727317 -0.686301 -2.28576e-012
f 21/53/28 23/52/28 22/51/28

vt 0.301018 0.128956
vn 1.65226e-012 0.271119 0.962546
v 0.672239 0.387745 -0.777805
vt 0.305563 0.2655
v 0.312239 0.387745 -0.777805
vt 0.141927 0.2655
vt 0.137381 0.128956
f 4/54/29 24/55/29 25/56/29 11/57/29 

vn -1.65226e-012 -0.271119 -0.962546
f 11/57/30 25/56/30 24/55/30 4/54/30 

v 0.372439 0.525185 -0.942809
vt 0.16929 0.482066
vn 2.17896e-012 0.768363 0.640014
vt 0.141927 0.384454
vt 0.305563 0.384454
v 0.592039 0.525185 -0.942809
vt 0.269109 0.482066
f 26/58/31 25/59/31 24/60/31 27/61/31 

vn -2.17896e-012 -0.768363 -0.640014
f 27/61/32 24/60/32 25/59/32 26/58/32 

vt -0.269109 -0.137906
vn -2.38881e-012 0.712602 -0.701568
v 0.482239 0.379069 -1.09122
vt -0.219199 -0.232575
vt -0.16929 -0.137906
f 27/62/33 28/63/33 26/64/33

vn 2.38881e-012 -0.712602 0.701568
f 26/64/34 28/63/34 27/62/34

