# Alias OBJ Model File
# Exported from SketchUp, (c) 2000-2012 Trimble Navigation Limited
# File units = meters

mtllib Rock_2_01.mtl

g Mesh1 Rock_2 Model

usemtl Stone
v 0.75 0 -0
vt 0.340909 3.82374e-017
vn -5.76929e-016 0.190841 0.981621
v 0.695 0.49 -0.0952628
vt 0.315909 0.226897
v 0.305 0.49 -0.0952628
vt 0.138636 0.226897
v 0.25 0 -1.80478e-016
vt 0.113636 2.84015e-017
f 1/1/1 2/2/1 3/3/1 4/4/1 

vt 0.170455 -0.056343
vn 0.850109 0.190841 0.490811
v 1 0 -0.433013
vt 0.397727 -0.056343
v 0.89 0.49 -0.433013
vt 0.372727 0.170554
vt 0.195455 0.170554
f 1/5/2 5/6/2 6/7/2 2/8/2 

v 0.25 0 -0.866025
vt -0.113636 0.393648
vn 0 -1 -0
v 0.75 0 -0.866025
vt -0.340909 0.393648
vt -0.454545 0.196824
vt -0.340909 0
vt -0.113636 8.20354e-017
v 0 0 -0.433013
vt 0 0.196824
f 7/9/3 8/10/3 5/11/3 1/12/3 4/13/3 9/14/3 

vt -0.113636 -0.0751241
vn 4.42637e-016 0.190841 -0.981621
v 0.305 0.49 -0.770763
vt -0.138636 0.151773
v 0.695 0.49 -0.770763
vt -0.315909 0.151773
vt -0.340909 -0.0751241
f 7/15/4 10/16/4 11/17/4 8/18/4 

v 0.11 0.49 -0.433013
vt -0.195455 0.208116
vn -0.850109 0.190841 -0.490811
vt -0.372727 0.208116
vt -0.397727 -0.018781
vt -0.170455 -0.018781
f 12/19/5 10/20/5 7/21/5 9/22/5 

vt 0.138636 0.0433013
vn 0 1 -0
vt 0.138636 0.350347
vt 0.05 0.196824
f 3/23/6 10/24/6 12/25/6

v 0.305978 0.49 -0.379973
vt 0.139081 0.172715
f 10/24/6 3/23/6 13/26/6

v 0.418394 0.49 -0.185263
vt 0.190179 0.0842103
f 13/26/6 3/23/6 14/27/6

vt 0.315909 0.0433013
f 14/27/6 3/23/6 2/28/6

v 0.643226 0.49 -0.185263
vt 0.292375 0.0842103
f 14/27/6 2/28/6 15/29/6

v 0.755642 0.49 -0.379973
vt 0.343473 0.172715
f 15/29/6 2/28/6 16/30/6

vt 0.404545 0.196824
f 16/30/6 2/28/6 6/31/6

vt 0.315909 0.350347
f 11/32/6 16/30/6 6/31/6

v 0.643226 0.49 -0.574682
vt 0.292375 0.261219
f 11/32/6 17/33/6 16/30/6

v 0.418394 0.49 -0.574682
vt 0.190179 0.261219
f 11/32/6 18/34/6 17/33/6

f 10/24/6 18/34/6 11/32/6

f 18/34/6 10/24/6 13/26/6

v 0.366683 0.71 -0.379973
vt -0.232912 0.327367
vn -0.84231 0.232418 -0.486308
v 0.448746 0.71 -0.522111
vt -0.307516 0.327367
vt -0.321312 0.224551
vt -0.219116 0.224551
f 19/35/7 20/36/7 18/37/7 13/38/7 

v 0.612873 0.71 -0.522111
vt 0.278579 0.237323
vt 0.203976 0.237323
vt 0.166674 0.172715
v 0.448746 0.71 -0.237834
vt 0.203976 0.108106
v 0.612873 0.71 -0.237834
vt 0.278579 0.108106
v 0.694937 0.71 -0.379973
vt 0.31588 0.172715
f 21/39/6 20/40/6 19/41/6 22/42/6 23/43/6 24/44/6 

vt -0.190179 0.155916
vn -2.1594e-017 0.232418 -0.972616
vt -0.203976 0.258731
vt -0.278579 0.258731
vt -0.292375 0.155916
f 18/45/8 20/46/8 21/47/8 17/48/8 

vt -0.0221613 0.127423
vn 0.84231 0.232418 -0.486308
vt 0.0800349 0.127423
vt 0.0662384 0.230238
vt -0.00836485 0.230238
f 16/49/9 17/50/9 21/51/9 24/52/9 

vt 0.219116 0.167565
vn 0.84231 0.232418 0.486308
vt 0.321312 0.167565
vt 0.307516 0.27038
vt 0.232912 0.27038
f 15/53/10 16/54/10 24/55/10 23/56/10 

vt 0.292375 0.2362
vn -1.02854e-015 0.232418 0.972616
vt 0.278579 0.339016
vt 0.203976 0.339016
vt 0.190179 0.2362
f 15/57/11 23/58/11 22/59/11 14/60/11 

vt 0.00836485 0.367509
vn -0.84231 0.232418 0.486308
vt -0.0662384 0.367509
vt -0.0800349 0.264693
vt 0.0221613 0.264693
f 22/61/12 19/62/12 13/63/12 14/64/12 

vt -0.0568182 -0.0939051
vn 0.850109 0.190841 -0.490811
vt 0.170455 -0.0939051
vt 0.145455 0.132992
vt -0.0318182 0.132992
f 5/65/13 8/66/13 11/67/13 6/68/13 

vt 0.0318182 0.245678
vn -0.850109 0.190841 0.490811
vt -0.145455 0.245678
vt -0.170455 0.018781
vt 0.0568182 0.018781
f 3/69/14 12/70/14 9/71/14 4/72/14 

