# Alias OBJ Model File
# Exported from SketchUp, (c) 2000-2012 Trimble Navigation Limited
# File units = meters

mtllib Rock_1_01.mtl

g Mesh1 Rock_1 Model

usemtl Stone
v 0.2124 0.64 -0.510955
vt 0.0965455 0.232252
vn 0 1 -0
v 0.4012 0.64 -0.183944
vt 0.182364 0.0836108
v 0.7788 0.64 -0.183944
vt 0.354 0.0836108
v 0.9676 0.64 -0.510955
vt 0.439818 0.232252
v 0.7788 0.64 -0.837966
vt 0.354 0.380894
v 0.4012 0.64 -0.837966
vt 0.182364 0.380894
f 1/1/1 2/2/1 3/3/1 4/4/1 5/5/1 6/6/1 

vt 0.0187727 0.334764
vn -0.83233 0.276229 0.480546
vt -0.152864 0.334764
v 0 0 -0.510955
vt -0.201136 0.0320775
v 0.295 0 -1.80478e-016
vt 0.0670455 0.0320775
f 2/7/2 1/8/2 7/9/2 8/10/2 

vt -0.249409 0.270609
vn -0.83233 0.276229 -0.480546
vt -0.421045 0.270609
v 0.295 0 -1.02191
vt -0.469318 -0.0320775
vt -0.201136 -0.0320775
f 1/11/3 6/12/3 9/13/3 7/14/3 

vt -0.134091 -0.12831
vn 3.79073e-016 0.276229 -0.961092
vt -0.182364 0.174376
vt -0.354 0.174376
v 0.885 0 -1.02191
vt -0.402273 -0.12831
f 9/15/4 6/16/4 5/17/4 10/18/4 

v 1.18 0 -0.510955
vt -0.0670455 -0.160387
vn 0.83233 0.276229 -0.480546
vt 0.201136 -0.160387
vt 0.152864 0.142299
vt -0.0187727 0.142299
f 11/19/5 10/20/5 5/21/5 4/22/5 

vt -0.134091 8.20354e-017
vn 0 -1 -0
vt 0 0.232252
vt -0.134091 0.464505
vt -0.402273 0.464505
vt -0.536364 0.232252
v 0.885 0 -0
vt -0.402273 0
f 8/23/6 7/24/6 9/25/6 10/26/6 11/27/6 12/28/6 

vt 0.201136 -0.0962324
vn 0.83233 0.276229 0.480546
vt 0.469318 -0.0962324
vt 0.421045 0.206454
vt 0.249409 0.206454
f 12/29/7 11/30/7 4/31/7 3/32/7 

vt 0.402273 2.24147e-017
vn -1.93868e-016 0.276229 0.961092
vt 0.354 0.302686
vt 0.182364 0.302686
vt 0.134091 3.01322e-017
f 12/33/8 3/34/8 2/35/8 8/36/8 

