# Alias OBJ Model File
# Exported from SketchUp, (c) 2000-2012 Trimble Navigation Limited
# File units = meters

mtllib Tall_Rock_3_01.mtl

g Mesh1 Tall_Rock_3 Model

usemtl Stone
v 1.59349 0 -0.46
vt 0.731818 -0.0495587
vn 0.480909 0.273687 0.83296
v 1.43414 0.56 -0.552
vt 0.69 0.215091
vn 0.483182 0.257178 0.836896
v 0.796743 0.56 -0.184
vt 0.355455 0.215091
v 0.796743 0 -0
vt 0.313636 -0.0495587
f 1/1/1 2/2/2 3/3/2 4/4/1 

vt 0.209091 -0.198235
vn 0.961819 0.273687 -2.22017e-018
v 1.59349 0 -1.38
vt 0.627273 -0.198235
v 1.43414 0.56 -1.288
vt 0.585455 0.0664155
vn 0.961979 0.273124 -2.82111e-018
vt 0.250909 0.0664155
f 1/5/3 5/6/3 6/7/4 2/8/4 

v 0.796743 0 -1.84
vt 0.362156 0.836364
vn 0 1 -0
v 0 0 -1.38
vt 0 0.627273
v 0 0 -0.46
vt 0 0.209091
vt 0.362156 0
vt 0.724312 0.209091
vt 0.724312 0.627273
f 7/9/5 8/10/5 9/11/5 4/12/5 1/13/5 5/14/5 

vt -0.313636 -0.148676
vn -0.480909 0.273687 -0.83296
v 0.159349 0.56 -1.288
vt -0.355455 0.115974
v 0.796743 0.56 -1.656
vt -0.69 0.115974
vt -0.731818 -0.148676
f 8/15/6 10/16/6 11/17/6 7/18/6 

v 0.159349 0.56 -0.761934
vt -0.346333 0.26465
vn -0.961979 0.273124 1.96752e-017
vt -0.585455 0.26465
vn -0.961819 0.273687 1.96285e-018
vt -0.627273 3.50351e-019
vt -0.209091 1.16784e-019
v 0.159349 0.56 -0.552
vt -0.250909 0.26465
f 12/19/7 10/20/8 8/21/8 9/22/8 13/23/7 

vt 0.0724312 0.585455
vn -4.10779e-017 1 -9.6453e-017
vt 0.0724312 0.346333
v 0.747635 0.56 -0.761934
vt 0.339834 0.346333
v 0.659291 0.56 -1.2439
vt 0.299678 0.565411
v 1.11544 0.56 -1.472
vt 0.507019 0.669091
vt 0.362156 0.752727
f 10/24/9 12/25/9 14/26/9 15/27/9 16/28/9 11/29/9 

vt -0.0724312 0.264601
vn 3.40064e-018 -0.0293502 -0.999569
v 0.261332 0.92 -0.772504
vt -0.118787 0.428308
vn 3.58843e-018 -0.00507502 -0.999987
v 0.755492 0.92 -0.772504
vt -0.343406 0.428308
vt -0.339834 0.264601
f 12/30/10 17/31/11 18/32/11 14/33/10 

v 0.261332 0.92 -0.59616
vt -0.270982 0.434726
vn -0.977205 0.212298 -3.28845e-018
vt -0.351138 0.434726
f 19/34/12 17/35/12 12/19/7 13/23/7 

v 0.421955 1.97 -0.628896
vt -0.285862 0.91416
vn -0.988501 0.151216 -4.39517e-017
v 0.421955 1.97 -0.752337
vt -0.341971 0.91416
vt -0.351138 0.431336
vt -0.270982 0.431336
f 20/36/13 21/37/13 17/38/12 19/39/12 

v 1.17153 1.97 -0.628896
vt 0.532514 0.285862
vn -8.62943e-018 1 -3.25298e-016
v 1.17153 1.97 -0.839075
vt 0.532514 0.381398
v 0.967061 1.97 -0.998049
vt 0.439573 0.453659
v 0.741895 1.97 -0.894036
vt 0.337225 0.40638
v 0.767868 1.97 -0.752337
vt 0.349031 0.341971
vt 0.191798 0.341971
vt 0.191798 0.285862
v 0.796743 1.97 -0.412512
vt 0.362156 0.187506
f 22/40/14 23/41/14 24/42/14 25/43/14 26/44/14 21/45/14 20/46/14 27/47/14 

v 1.33215 0.92 -0.59616
vt 0.270982 0.321808
vn 0.977205 0.212298 -1.71434e-018
v 1.33215 0.92 -0.896416
vt 0.407462 0.321808
vt 0.381398 0.804633
vn 0.988501 0.151216 -0
vt 0.285862 0.804633
f 28/48/15 29/49/15 23/50/16 22/51/16 

vt 0.250909 0.0672307
vt 0.585455 0.0672307
v 1.33215 0.92 -1.2144
vt 0.552 0.237306
vn 0.962139 0.272561 -3.42206e-018
vt 0.407462 0.237306
vt 0.270982 0.237306
f 2/52/4 6/53/4 30/54/17 29/55/15 28/56/15 

vt -0.104545 -0.0104009
vn 0.478709 0.288704 -0.829149
v 1.06445 0.92 -1.36896
vt -0.107891 0.161345
vn 0.476392 0.30365 -0.825135
vt -0.2484 0.161345
vt -0.271818 -0.0104009
f 16/57/18 31/58/19 30/59/19 6/60/18 

vt -0.520914 0.179638
vn -0.439172 0.189172 -0.878261
v 0.681284 0.92 -1.17736
vt -0.516326 0.346283
vt -0.711054 0.346283
vt -0.752732 0.179638
f 15/61/20 32/62/20 31/63/20 16/64/20 

v 0.718388 0.92 -0.974932
vt -0.377016 0.428762
vn -0.983463 0.0174419 0.180266
vt -0.470561 0.428762
vn -0.983261 0.0267526 0.180229
vt -0.502115 0.265067
vt -0.279388 0.265067
vt -0.28347 0.428762
f 33/65/21 32/66/22 15/67/22 14/68/22 18/69/21 

vt 0.309674 0.535163
vn -4.45432e-016 1 7.87353e-017
vt 0.32654 0.443151
v 1.04005 0.92 -1.12352
vt 0.472752 0.510692
vt 0.605525 0.407462
vt 0.605525 0.552
vt 0.483841 0.622255
f 32/70/23 33/71/23 34/72/23 29/73/23 30/74/23 31/75/23 

vt -0.482279 0.395887
vn -0.418044 0.0790812 -0.904978
vt -0.476559 0.874659
vt -0.589299 0.874659
vt -0.643336 0.395887
f 33/76/24 25/77/24 24/78/24 34/79/24 

vt -0.27344 0.898717
vn -0.98358 0.00812973 0.180287
vt -0.338921 0.898717
vt -0.377016 0.421429
vt -0.28347 0.421429
f 26/80/25 25/81/25 33/82/21 18/83/21 

vt -0.118787 0.411362
vt -0.191798 0.888722
vn 3.7741e-018 0.0192032 -0.999816
vt -0.349031 0.888722
vt -0.343406 0.411362
f 17/84/11 21/85/26 26/86/26 18/87/11 

vt -0.0597581 0.320196
vn 0.608117 0.13574 -0.782156
vt -0.0685715 0.801928
vt -0.186299 0.801928
vt -0.22794 0.320196
f 34/88/27 24/89/27 23/90/27 29/91/27 

vt 0.104545 -0.247793
vn 0.480909 0.273687 -0.83296
vt 0.0627273 0.0168568
vt -0.104545 0.0168568
vt -0.271818 0.0168568
vt -0.313636 -0.247793
f 7/92/28 11/93/28 16/94/18 6/95/18 5/96/28 

vt 0.69 0.220929
vt 0.659891 0.389517
vn 0.492532 0.172187 0.853091
v 0.796743 0.92 -0.28704
vt 0.378873 0.389517
vt 0.355455 0.220929
f 2/97/2 28/98/29 35/99/29 3/100/2 

vt 0.659891 0.408952
vt 0.604102 0.888773
vn 0.497344 0.102938 0.861425
vt 0.407389 0.888773
vt 0.378873 0.408952
f 28/101/29 22/102/30 27/103/30 35/104/29 

vt 0.2484 0.446231
vn -0.492532 0.172187 0.853091
vt 0.219884 0.926053
vn -0.497344 0.102938 0.861425
vt 0.0231709 0.926053
vt -0.0326182 0.446231
f 35/105/31 27/106/32 20/107/32 19/108/31 

vt 0.271818 0.308061
vn -0.483182 0.257178 0.836896
vt 0.2484 0.47665
vt -0.0326182 0.47665
vt -0.0627273 0.308061
f 3/109/33 35/110/31 19/111/31 13/112/33 

vt 0.313636 0.0495587
vn -0.480909 0.273687 0.83296
vt 0.271818 0.314209
vt -0.0627273 0.314209
vt -0.104545 0.0495587
f 4/113/34 3/114/33 13/115/33 9/116/34 

