# Alias OBJ Model File
# Exported from SketchUp, (c) 2000-2012 Trimble Navigation Limited
# File units = meters

mtllib Wood_Fence_01.mtl

g Mesh1 Wood_Fence Model

usemtl Wood
v 0.5 1.1 -3.60956e-016
vt 0.227273 1.64071e-016
vn 0 1 -0
v 0.5 1.1 -0.5
vt 0.227273 0.227273
v 0 1.1 -0.5
vt 0 0.227273
v 0 1.1 -0
vt 0 0
f 1/1/1 2/2/1 3/3/1 4/4/1 

v 0.5 0 -3.60956e-016
vt 1.64071e-016 0
vn 1 0 -0
v 0.5 0 -0.5
vt 0.227273 0
vt 0.227273 0.5
vt 1.64071e-016 0.5
f 5/5/2 6/6/2 2/7/2 1/8/2 

v 0 0 -0.5
vn 0 -1 -0
vt -0.227273 0.227273
vt -0.227273 1.64071e-016
v 0 0 -0
f 7/3/3 6/9/3 5/10/3 8/4/3 

vn 0 0 -1
v 0.1 0.5 -0.5
vt -0.0454545 0.227273
vt -0.227273 0
f 7/4/4 9/11/4 6/12/4

vt 0 0.5
f 9/11/4 7/4/4 3/13/4

vn -1 0 -0
vt -0.227273 0.5
f 4/13/5 3/14/5 7/12/5 8/4/5 

vn 0 0 1
f 8/4/6 5/6/6 1/7/6 4/13/6 

v 0.1 1 -0.5
vt -0.0454545 0.454545
f 9/11/4 3/13/4 10/15/4

v 0.4 1 -0.5
vt -0.181818 0.454545
f 10/15/4 3/13/4 11/16/4

f 2/14/4 11/16/4 3/13/4

v 0.4 0.5 -0.5
vt -0.181818 0.227273
f 2/14/4 12/17/4 11/16/4

f 6/12/4 12/17/4 2/14/4

f 12/17/4 6/12/4 9/11/4

v 0.1 0.5 -2.5
vt -0.0454545 1.13636
v 0.4 0.5 -2.5
vt -0.181818 1.13636
f 9/11/3 13/18/3 14/19/3 12/17/3 

v 0.1 1 -2.5
vt -1.13636 0.454545
vt -1.13636 0.227273
vt -0.227273 0.454545
f 15/20/5 13/21/5 9/9/5 10/22/5 

v 0 1.1 -2.5
vt 0.0454545 0.227273
vt 0.0454545 0.454545
f 16/13/6 13/23/6 15/24/6

v 0 0 -2.5
f 17/4/6 13/23/6 16/13/6

vt 0.181818 0.227273
f 13/23/6 17/4/6 14/25/6

v 0.5 0 -2.5
f 18/6/6 14/25/6 17/4/6

v 0.5 1.1 -2.5
f 14/25/6 18/6/6 19/7/6

v 0.5 1.1 -3
vt 1.36364 0.5
vt 1.13636 0.5
vt 1.13636 0
v 0.5 0 -3
vt 1.36364 0
f 20/26/2 19/27/2 18/28/2 21/29/2 

v 0 1.1 -3
vt 0 1.36364
vt 0 1.13636
vt 0.227273 1.13636
vt 0.227273 1.36364
f 22/30/1 16/31/1 19/32/1 20/33/1 

v 0 0 -3
vt -1.36364 0
vt -1.13636 0
vt -1.13636 0.5
vt -1.36364 0.5
f 23/34/5 17/35/5 16/36/5 22/37/5 

vt -0.227273 1.13636
vt -0.227273 1.36364
f 18/38/3 17/31/3 23/30/3 21/39/3 

f 21/12/4 23/4/4 22/13/4 20/14/4 

f 16/13/6 15/24/6 19/7/6

v 0.4 1 -2.5
vt 0.181818 0.454545
f 24/40/6 19/7/6 15/24/6

f 14/25/6 19/7/6 24/40/6

vt 0.227273 0.454545
vt 1.13636 0.227273
vt 1.13636 0.454545
f 11/41/2 12/2/2 14/42/2 24/43/2 

vt 0.181818 1.13636
vn 0 1 3.60956e-016
vt 0.0454545 1.13636
f 24/44/7 15/45/7 10/23/7 11/25/7 

