# Alias OBJ Model File
# Exported from SketchUp, (c) 2000-2012 Trimble Navigation Limited
# File units = meters

mtllib Wood_Fence_Broken_01.mtl

g Mesh1 Wood_Fence_Broken Model

usemtl Wood
v 0.5 1.1 4.33147e-015
vt 0.227273 -1.96885e-015
vn 0 1 -0
v 0.5 1.1 -0.5
vt 0.227273 0.227273
v 0 1.1 -0.5
vt 0 0.227273
v 0 1.1 -0
vt 0 0
f 1/1/1 2/2/1 3/3/1 4/4/1 

v 0.5 0 4.33147e-015
vt -1.96885e-015 0
vn 1 0 -0
v 0.5 0 -0.5
vt 0.227273 0
vt 0.227273 0.5
vt -1.96885e-015 0.5
f 5/5/2 6/6/2 2/7/2 1/8/2 

v 0 0 -0.5
vn 0 -1 -0
vt -0.227273 0.227273
vt -0.227273 -1.96885e-015
v 0 0 -0
f 7/3/3 6/9/3 5/10/3 8/4/3 

vn 0 0 -1
v 0.1 0.5 -0.5
vt -0.0454545 0.227273
vt -0.227273 0
f 7/4/4 9/11/4 6/12/4

vt 0 0.5
f 9/11/4 7/4/4 3/13/4

vn -1 0 -0
vt -0.227273 0.5
f 4/13/5 3/14/5 7/12/5 8/4/5 

vn 0 0 1
f 8/4/6 5/6/6 1/7/6 4/13/6 

v 0.1 1 -0.5
vt -0.0454545 0.454545
f 9/11/4 3/13/4 10/15/4

v 0.4 1 -0.5
vt -0.181818 0.454545
f 10/15/4 3/13/4 11/16/4

f 2/14/4 11/16/4 3/13/4

v 0.4 0.5 -0.5
vt -0.181818 0.227273
f 2/14/4 12/17/4 11/16/4

f 6/12/4 12/17/4 2/14/4

f 12/17/4 6/12/4 9/11/4

v 0.1 0.5 -0.682889
vt -0.0454545 0.310404
v 0.4 0.5 -0.682889
vt -0.181818 0.310404
f 13/18/3 14/19/3 12/17/3 9/11/3 

usemtl Light_Wood
vt -0.0454545 0.341519
vn -1.29983e-014 -0.444287 -0.895885
v 0.1 0.625 -0.744879
vt -0.0454545 0.40494
v 0.4 0.625 -0.744879
vt -0.181818 0.40494
vt -0.181818 0.341519
f 13/20/7 15/21/7 16/22/7 14/23/7 

usemtl Wood
vt -0.227273 0.454545
vn -1 -6.17252e-016 -3.51834e-014
v 0.1 1 -0.682889
vt -0.310404 0.454545
v 0.1 0.875 -0.791959
vt -0.359981 0.397727
v 0.1 0.75 -0.682889
vt -0.310404 0.340909
vt -0.338582 0.284091
vt -0.310404 0.227273
f 10/24/8 17/25/8 18/26/8 19/27/8 15/28/8 13/29/8 9/9/8 

vt 0.181818 0.227273
v 0.4 1 -0.682889
vt 0.181818 0.310404
vt 0.0454545 0.310404
vt 0.0454545 0.227273
f 11/30/1 20/31/1 17/32/1 10/33/1 

vn 1 3.74187e-016 2.35669e-014
vt 0.310404 0.227273
vt 0.338582 0.284091
v 0.4 0.75 -0.682889
vt 0.310404 0.340909
v 0.4 0.875 -0.791959
vt 0.359981 0.397727
vt 0.310404 0.454545
vt 0.227273 0.454545
f 12/2/9 14/34/9 16/35/9 21/36/9 22/37/9 20/38/9 11/39/9 

usemtl Light_Wood
vt -0.0454545 0.104085
vn 9.80403e-017 0.444287 -0.895885
vt -0.0454545 0.167507
vt -0.181818 0.167507
vt -0.181818 0.104085
f 15/40/10 19/41/10 21/42/10 16/43/10 

vt -0.0454545 0.46095
vn -4.23582e-016 -0.65746 -0.75349
vt -0.0454545 0.536357
vt -0.181818 0.536357
vt -0.181818 0.46095
f 19/44/11 18/45/11 22/46/11 21/47/11 

vt -0.0454545 0.0630102
vn -1.09386e-014 0.65746 -0.75349
vt -0.0454545 0.138417
vt -0.181818 0.138417
vt -0.181818 0.0630102
f 18/48/12 17/49/12 20/50/12 22/51/12 

g Mesh2 Wood_Fence_Broken Model

usemtl Wood
v 0.5 0 -3
v 0 0 -3
v 0 1.1 -3
v 0.5 1.1 -3
f 23/12/4 24/4/4 25/13/4 26/14/4 

v 0.5 0 -2.5
vt -0.227273 1.13636
v 8.66294e-015 0 -2.5
vt -3.9377e-015 1.13636
vt 0 1.36364
vt -0.227273 1.36364
f 27/52/3 28/53/3 24/54/3 23/55/3 

v 0.4 0.5 -2.5
vt 3.9377e-015 0
f 27/6/6 29/30/6 28/56/6

v 0.5 1.1 -2.5
f 29/30/6 27/6/6 30/7/6

vt 1.36364 0.5
vt 1.13636 0.5
vt 1.13636 0
vt 1.36364 0
f 26/57/2 30/58/2 27/59/2 23/60/2 

v 8.66294e-015 1.1 -2.5
vt 3.9377e-015 1.13636
vt 0.227273 1.13636
vt 0.227273 1.36364
f 25/54/1 31/61/1 30/62/1 26/63/1 

vt -1.36364 0
vt -1.13636 0
vt -1.13636 0.5
vt -1.36364 0.5
f 24/64/5 28/65/5 31/66/5 25/67/5 

v 0.1 0.5 -2.5
vt 3.9377e-015 0.5
f 28/56/6 32/33/6 31/68/6

f 32/33/6 28/56/6 29/30/6

v 0.1 0.113494 -1.60273
vt -0.0454545 0.689489
vn -4.46711e-015 -0.918416 -0.395616
vt -0.0454545 1.13357
vt -0.181818 1.13357
v 0.4 0.113494 -1.60273
vt -0.181818 0.689489
f 33/69/13 32/70/13 29/71/13 34/72/13 

v 0.1 0.33 -1.47773
vt -0.671697 0.15
vn -1 1.98451e-014 -7.82483e-015
v 0.1 0.351109 -1.23609
vt -0.561858 0.159595
v 0.1 0.546506 -1.35273
vt -0.614879 0.248412
v 0.1 1 -2.5
vt -1.13636 0.454545
vt -1.13636 0.227273
vt -0.728515 0.051588
v 0.1 0.169417 -1.4496
vt -0.658907 0.0770078
f 35/73/14 36/74/14 37/75/14 38/76/14 32/77/14 33/78/14 39/79/14 

usemtl Light_Wood
vt 0.0454545 -0.545838
vn 1.41901e-014 -0.996206 0.0870235
vt 0.0454545 -0.656095
v 0.4 0.33 -1.47773
vt 0.181818 -0.656095
v 0.4 0.351109 -1.23609
vt 0.181818 -0.545838
f 36/80/15 35/81/15 40/82/15 41/83/15 

vt 0.0454545 0.263678
vn 2.81087e-014 0.172591 0.984993
vt 0.0454545 0.189574
v 0.4 0.169417 -1.4496
vt 0.181818 0.189574
vt 0.181818 0.263678
f 35/84/16 39/85/16 42/86/16 40/87/16 

vt 0.0454545 -0.592512
vn 2.88024e-014 -0.939325 0.343028
vt 0.0454545 -0.666616
vt 0.181818 -0.666616
vt 0.181818 -0.592512
f 39/88/17 33/89/17 34/90/17 42/91/17 

usemtl Wood
v 0.4 1 -2.5
vt 1.13636 0.454545
vn 1 -2.06449e-014 1.01008e-014
v 0.4 0.546506 -1.35273
vt 0.614879 0.248412
vt 0.561858 0.159595
vt 0.671697 0.15
vt 0.658907 0.0770078
vt 0.728515 0.051588
vt 1.13636 0.227273
f 43/92/18 44/93/18 41/94/18 40/95/18 42/96/18 34/97/18 29/98/18 

vt 0.0454545 0.663144
vn 9.64258e-016 0.929982 0.367605
vt 0.181818 0.663144
vt 0.181818 1.22389
vt 0.0454545 1.22389
f 37/99/19 44/100/19 43/101/19 38/102/19 

usemtl Light_Wood
vt 0.0454545 0.52847
vn 3.94029e-014 0.512579 0.85864
vt 0.0454545 0.425031
vt 0.181818 0.425031
vt 0.181818 0.52847
f 37/103/20 36/104/20 41/105/20 44/106/20 

usemtl Wood
vt 0.181818 0.454545
vt 0.0454545 0.454545
f 43/107/6 30/7/6 38/108/6

f 29/30/6 30/7/6 43/107/6

f 31/68/6 38/108/6 30/7/6

f 31/68/6 32/33/6 38/108/6

